<?xml version="1.0" encoding="UTF-8"?>
<svg xmlns="http://www.w3.org/2000/svg" xmlns:xlink="http://www.w3.org/1999/xlink" width="80pt" height="80pt" viewBox="0 0 80 80" version="1.1">
<g id="surface1">
<path style=" stroke:none;fill-rule:nonzero;fill:rgb(0%,0%,0%);fill-opacity:1;" d="M 61.136719 49.136719 C 61.136719 50.367188 60.140625 51.363281 58.914062 51.363281 C 57.683594 51.363281 56.6875 50.367188 56.6875 49.136719 C 56.6875 47.910156 57.683594 46.914062 58.914062 46.914062 C 60.140625 46.914062 61.136719 47.910156 61.136719 49.136719 Z M 61.136719 49.136719 "/>
<path style=" stroke:none;fill-rule:nonzero;fill:rgb(0%,0%,0%);fill-opacity:1;" d="M 70.050781 31.625 L 68.089844 31.625 L 68.089844 1.324219 C 68.089844 0.59375 67.496094 0 66.765625 0 L 31.390625 0 C 30.660156 0 30.066406 0.59375 30.066406 1.324219 C 30.066406 2.058594 30.660156 2.652344 31.390625 2.652344 L 65.441406 2.652344 L 65.441406 6.1875 L 21.191406 6.1875 C 17.671875 6.1875 14.8125 9.046875 14.8125 12.566406 C 14.8125 16.082031 17.671875 18.945312 21.191406 18.945312 L 51.476562 18.945312 C 52.207031 18.945312 52.800781 18.351562 52.800781 17.621094 C 52.800781 16.886719 52.207031 16.292969 51.476562 16.292969 L 21.191406 16.292969 C 19.136719 16.292969 17.460938 14.621094 17.460938 12.566406 C 17.460938 10.511719 19.136719 8.835938 21.191406 8.835938 L 65.441406 8.835938 L 65.441406 16.292969 L 56.777344 16.292969 C 56.046875 16.292969 55.453125 16.886719 55.453125 17.621094 C 55.453125 18.351562 56.046875 18.945312 56.777344 18.945312 L 65.441406 18.945312 L 65.441406 22.480469 L 21.191406 22.480469 C 19.546875 22.480469 17.914062 22.066406 16.46875 21.28125 C 13.378906 19.601562 11.277344 16.324219 11.277344 12.566406 C 11.277344 7.097656 15.722656 2.652344 21.191406 2.652344 L 26.089844 2.652344 C 26.824219 2.652344 27.417969 2.058594 27.417969 1.324219 C 27.417969 0.59375 26.824219 0 26.089844 0 L 21.191406 0 C 14.261719 0 8.625 5.636719 8.625 12.566406 L 8.625 74.039062 C 8.625 77.324219 11.300781 80 14.585938 80 L 62.128906 80 C 65.417969 80 68.089844 77.324219 68.089844 74.039062 L 68.089844 66.652344 L 70.050781 66.652344 C 70.78125 66.652344 71.375 66.058594 71.375 65.324219 L 71.375 32.949219 C 71.375 32.21875 70.78125 31.625 70.050781 31.625 Z M 65.441406 74.039062 C 65.441406 75.863281 63.953125 77.347656 62.128906 77.347656 L 22.515625 77.347656 L 22.515625 70.636719 C 22.515625 69.90625 21.921875 69.3125 21.191406 69.3125 C 20.460938 69.3125 19.867188 69.90625 19.867188 70.636719 L 19.867188 77.347656 L 14.585938 77.347656 C 12.761719 77.347656 11.277344 75.863281 11.277344 74.039062 L 11.277344 20.277344 C 11.3125 20.324219 11.347656 20.367188 11.382812 20.410156 C 13.414062 22.941406 16.40625 24.632812 19.625 25.03125 C 19.707031 25.042969 19.785156 25.054688 19.867188 25.0625 L 19.867188 65.335938 C 19.867188 66.066406 20.460938 66.660156 21.191406 66.660156 C 21.921875 66.660156 22.515625 66.066406 22.515625 65.335938 L 22.515625 25.132812 L 65.441406 25.132812 L 65.441406 31.625 L 61.390625 31.625 C 60.953125 31.625 60.542969 31.84375 60.292969 32.207031 L 50.9375 46.035156 C 49.660156 47.921875 49.660156 50.355469 50.9375 52.242188 L 60.292969 66.066406 C 60.542969 66.433594 60.953125 66.652344 61.390625 66.652344 L 65.441406 66.652344 Z M 68.722656 64 L 62.097656 64 L 53.132812 50.753906 C 52.46875 49.773438 52.46875 48.503906 53.132812 47.523438 L 62.097656 34.277344 L 68.722656 34.277344 Z M 68.722656 64 "/>
</g>
</svg>
